<svg width="67" height="180" viewBox="0 0 67 180" fill="none" xmlns="http://www.w3.org/2000/svg">
<mask id="path-1-outside-1_73_307" maskUnits="userSpaceOnUse" x="-2" y="-2" width="71" height="184" fill="black">
<rect fill="white" x="-2" y="-2" width="71" height="184"/>
<path d="M18.8848 125.75C18.8848 125.75 18.4681 124.75 17.6348 122.75C16.8014 120.75 16.1348 118.083 15.6348 114.75C15.1348 111.25 15.0514 107.417 15.3848 103.25C15.8848 98.9167 17.3014 94.5 19.6348 90C22.3014 85 25.0514 80.5 27.8848 76.5C30.8848 72.3333 33.6348 68.4167 36.1348 64.75C38.6348 60.9167 40.6348 57.0833 42.1348 53.25C43.8014 49.25 44.6348 44.9167 44.6348 40.25C44.6348 36.25 44.0514 33 42.8848 30.5C41.8848 28 40.3848 26.0833 38.3848 24.75C36.5514 23.25 34.3848 22.25 31.8848 21.75C29.3848 21.25 26.8848 21 24.3848 21C18.8848 21 14.3848 21.8333 10.8848 23.5C7.38477 25 4.88477 26.25 3.38477 27.25C2.55143 24.75 1.80143 22.1667 1.13477 19.5C0.634766 16.8333 0.384766 14.0833 0.384766 11.25C0.384766 9.08333 1.9681 7.25 5.13477 5.75C8.30143 4.25 12.3014 2.99999 17.1348 1.99999C21.9681 0.999989 26.8014 0.49999 31.6348 0.49999C36.8014 0.49999 41.5514 1.24999 45.8848 2.74999C50.2181 4.08333 53.8848 6.25 56.8848 9.25C60.0514 12.0833 62.3848 15.6667 63.8848 20C65.5514 24.3333 66.3848 29.4167 66.3848 35.25C66.3848 42.9167 65.3848 49.5833 63.3848 55.25C61.3848 60.9167 58.8848 66 55.8848 70.5C52.8848 75 49.8014 79.25 46.6348 83.25C43.6348 87.25 40.9681 91.25 38.6348 95.25C36.3014 99.4167 35.2181 103.5 35.3848 107.5C35.7181 111.5 36.3014 115 37.1348 118C37.9681 120.833 37.9681 122.75 37.1348 123.75C36.4681 124.583 34.9681 125.25 32.6348 125.75C30.4681 126.083 28.1348 126.25 25.6348 126.25C23.1348 126.25 20.8848 126.083 18.8848 125.75ZM28.1348 179.5C22.9681 179.5 19.3014 178.25 17.1348 175.75C15.1348 173.25 14.1348 169.75 14.1348 165.25C14.1348 161.417 15.3014 158.083 17.6348 155.25C20.1348 152.25 23.6348 150.75 28.1348 150.75C33.3014 150.75 36.8848 152.083 38.8848 154.75C41.0514 157.417 42.1348 160.917 42.1348 165.25C42.1348 169.083 40.8848 172.417 38.3848 175.25C36.0514 178.083 32.6348 179.5 28.1348 179.5Z"/>
</mask>
<path d="M18.8848 125.75C18.8848 125.75 18.4681 124.75 17.6348 122.75C16.8014 120.75 16.1348 118.083 15.6348 114.75C15.1348 111.25 15.0514 107.417 15.3848 103.25C15.8848 98.9167 17.3014 94.5 19.6348 90C22.3014 85 25.0514 80.5 27.8848 76.5C30.8848 72.3333 33.6348 68.4167 36.1348 64.75C38.6348 60.9167 40.6348 57.0833 42.1348 53.25C43.8014 49.25 44.6348 44.9167 44.6348 40.25C44.6348 36.25 44.0514 33 42.8848 30.5C41.8848 28 40.3848 26.0833 38.3848 24.75C36.5514 23.25 34.3848 22.25 31.8848 21.75C29.3848 21.25 26.8848 21 24.3848 21C18.8848 21 14.3848 21.8333 10.8848 23.5C7.38477 25 4.88477 26.25 3.38477 27.25C2.55143 24.75 1.80143 22.1667 1.13477 19.5C0.634766 16.8333 0.384766 14.0833 0.384766 11.25C0.384766 9.08333 1.9681 7.25 5.13477 5.75C8.30143 4.25 12.3014 2.99999 17.1348 1.99999C21.9681 0.999989 26.8014 0.49999 31.6348 0.49999C36.8014 0.49999 41.5514 1.24999 45.8848 2.74999C50.2181 4.08333 53.8848 6.25 56.8848 9.25C60.0514 12.0833 62.3848 15.6667 63.8848 20C65.5514 24.3333 66.3848 29.4167 66.3848 35.25C66.3848 42.9167 65.3848 49.5833 63.3848 55.25C61.3848 60.9167 58.8848 66 55.8848 70.5C52.8848 75 49.8014 79.25 46.6348 83.25C43.6348 87.25 40.9681 91.25 38.6348 95.25C36.3014 99.4167 35.2181 103.5 35.3848 107.5C35.7181 111.5 36.3014 115 37.1348 118C37.9681 120.833 37.9681 122.75 37.1348 123.75C36.4681 124.583 34.9681 125.25 32.6348 125.75C30.4681 126.083 28.1348 126.25 25.6348 126.25C23.1348 126.25 20.8848 126.083 18.8848 125.75ZM28.1348 179.5C22.9681 179.5 19.3014 178.25 17.1348 175.75C15.1348 173.25 14.1348 169.75 14.1348 165.25C14.1348 161.417 15.3014 158.083 17.6348 155.25C20.1348 152.25 23.6348 150.75 28.1348 150.75C33.3014 150.75 36.8848 152.083 38.8848 154.75C41.0514 157.417 42.1348 160.917 42.1348 165.25C42.1348 169.083 40.8848 172.417 38.3848 175.25C36.0514 178.083 32.6348 179.5 28.1348 179.5Z" fill="#FFCD00"/>
<path d="M18.8848 125.75L17.0386 126.519L17.4643 127.541L18.556 127.723L18.8848 125.75ZM17.6348 122.75L19.4809 121.981V121.981L17.6348 122.75ZM15.6348 114.75L13.6548 115.033L13.6569 115.047L15.6348 114.75ZM15.3848 103.25L13.3979 103.021L13.3939 103.056L13.3911 103.09L15.3848 103.25ZM19.6348 90L17.8701 89.0588L17.8646 89.0691L17.8593 89.0794L19.6348 90ZM27.8848 76.5L26.2617 75.3314L26.2572 75.3377L26.2527 75.344L27.8848 76.5ZM36.1348 64.75L37.7872 65.8767L37.7988 65.8597L37.81 65.8425L36.1348 64.75ZM42.1348 53.25L40.2886 52.4808L40.2802 52.5009L40.2723 52.5212L42.1348 53.25ZM42.8848 30.5L41.0278 31.2428L41.0487 31.2949L41.0724 31.3458L42.8848 30.5ZM38.3848 24.75L37.1183 26.2979L37.194 26.3598L37.2754 26.4141L38.3848 24.75ZM31.8848 21.75L31.4925 23.7112H31.4925L31.8848 21.75ZM10.8848 23.5L11.6726 25.3383L11.7089 25.3227L11.7446 25.3057L10.8848 23.5ZM3.38477 27.25L1.4874 27.8824L2.31544 30.3666L4.49416 28.9141L3.38477 27.25ZM1.13477 19.5L-0.830978 19.8686L-0.819985 19.9272L-0.805519 19.9851L1.13477 19.5ZM17.1348 1.99999L16.7296 0.0414648L16.7296 0.0414658L17.1348 1.99999ZM45.8848 2.74999L45.2305 4.63996L45.2634 4.65133L45.2966 4.66155L45.8848 2.74999ZM56.8848 9.25L55.4706 10.6642L55.5098 10.7035L55.5512 10.7405L56.8848 9.25ZM63.8848 20L61.9948 20.6542L62.0059 20.6863L62.0181 20.718L63.8848 20ZM63.3848 55.25L65.2708 55.9156L63.3848 55.25ZM55.8848 70.5L57.5489 71.6094L55.8848 70.5ZM46.6348 83.25L45.0667 82.0086L45.0505 82.0291L45.0348 82.05L46.6348 83.25ZM38.6348 95.25L36.9072 94.2422L36.8983 94.2574L36.8898 94.2728L38.6348 95.25ZM35.3848 107.5L33.3865 107.583L33.3882 107.625L33.3917 107.666L35.3848 107.5ZM37.1348 118L35.2077 118.535L35.2118 118.55L35.216 118.564L37.1348 118ZM37.1348 123.75L35.5983 122.47L35.5855 122.485L35.573 122.501L37.1348 123.75ZM32.6348 125.75L32.9389 127.727L32.9967 127.718L33.0538 127.706L32.6348 125.75ZM17.1348 175.75L15.573 176.999L15.5976 177.03L15.6234 177.06L17.1348 175.75ZM17.6348 155.25L16.0983 153.97L16.0909 153.979L17.6348 155.25ZM38.8848 154.75L37.2848 155.95L37.3081 155.981L37.3325 156.011L38.8848 154.75ZM38.3848 175.25L36.8851 173.927L36.8626 173.952L36.8409 173.979L38.3848 175.25ZM18.8848 125.75C20.7309 124.981 20.7309 124.981 20.7309 124.981C20.7309 124.981 20.7309 124.981 20.7309 124.981C20.7309 124.981 20.7309 124.981 20.7308 124.981C20.7307 124.98 20.7308 124.98 20.7306 124.98C20.7302 124.979 20.7303 124.979 20.7297 124.978C20.7282 124.974 20.7283 124.975 20.726 124.969C20.7202 124.955 20.7205 124.956 20.7114 124.934C20.6984 124.903 20.6788 124.856 20.6528 124.793C20.5452 124.535 20.5781 124.614 20.4184 124.231C20.3085 123.967 20.3656 124.104 20.2426 123.809C20.1692 123.633 20.2168 123.747 20.1401 123.563C20.1039 123.476 20.1222 123.52 20.0852 123.431C20.0758 123.409 20.0663 123.386 20.0568 123.363C20.0462 123.338 20.053 123.354 20.0424 123.328C20.037 123.315 20.0404 123.324 20.0351 123.311C20.0339 123.308 20.0327 123.305 20.0315 123.302C20.0302 123.299 20.029 123.296 20.0278 123.293C20.0266 123.29 20.0254 123.287 20.0241 123.284C20.0229 123.282 20.0217 123.279 20.0205 123.276C20.0126 123.257 20.021 123.277 20.0131 123.258C20.0022 123.232 20.0091 123.248 19.9982 123.222C19.9882 123.198 19.9782 123.174 19.968 123.15C19.9227 123.041 19.9518 123.111 19.9057 123C19.8107 122.772 19.8721 122.92 19.7739 122.684C19.7233 122.562 19.7557 122.64 19.7043 122.517C19.6782 122.454 19.6949 122.494 19.6686 122.431C19.6626 122.417 19.6566 122.402 19.6505 122.388C19.649 122.384 19.6475 122.381 19.646 122.377C19.6445 122.373 19.6429 122.37 19.6414 122.366C19.6399 122.362 19.6384 122.359 19.6369 122.355C19.6353 122.351 19.6338 122.348 19.6323 122.344C19.6126 122.297 19.6336 122.347 19.6139 122.3C19.6003 122.267 19.609 122.288 19.5954 122.255C19.583 122.226 19.5704 122.196 19.5578 122.165C19.5326 122.105 19.507 122.043 19.4809 121.981L15.7886 123.519C15.8615 123.694 15.7547 123.438 15.8274 123.612C15.8427 123.649 15.8313 123.622 15.8465 123.658C15.8567 123.683 15.8459 123.657 15.856 123.681C15.8586 123.687 15.863 123.698 15.8655 123.704C15.8756 123.728 15.8743 123.725 15.8844 123.749C15.8993 123.785 15.8882 123.758 15.9031 123.794C15.9726 123.961 15.8707 123.716 15.94 123.883C15.9402 123.883 15.9763 123.97 15.9763 123.97C15.9811 123.981 15.9895 124.001 15.9942 124.013C16.0415 124.126 15.9648 123.942 16.012 124.055C16.0214 124.078 16.0379 124.117 16.0471 124.14C16.0473 124.14 16.0816 124.222 16.0816 124.222C16.083 124.226 16.0844 124.229 16.0858 124.233C16.0873 124.236 16.0887 124.239 16.0901 124.243C16.1037 124.275 16.085 124.231 16.0986 124.263C16.1031 124.274 16.111 124.293 16.1155 124.304C16.1692 124.433 16.0952 124.255 16.1487 124.383C16.1576 124.405 16.1727 124.441 16.1814 124.462C16.2461 124.617 16.1328 124.345 16.1975 124.5C16.206 124.521 16.205 124.518 16.2134 124.539C16.2176 124.549 16.2171 124.548 16.2213 124.558C16.2528 124.633 16.1978 124.501 16.2292 124.577C16.2669 124.667 16.2072 124.524 16.2449 124.614C16.2532 124.634 16.2675 124.669 16.2757 124.688C16.3326 124.825 16.2339 124.588 16.2909 124.725C16.3029 124.753 16.2939 124.732 16.3059 124.761C16.3298 124.818 16.3118 124.775 16.3355 124.832C16.3513 124.87 16.3779 124.933 16.3929 124.969C16.4153 125.023 16.3984 124.983 16.4206 125.036C16.4424 125.088 16.4126 125.017 16.4343 125.069C16.4354 125.072 16.4366 125.074 16.4377 125.077C16.4388 125.08 16.4399 125.082 16.4411 125.085C16.4429 125.089 16.446 125.097 16.4478 125.101C16.4908 125.204 16.4581 125.126 16.5003 125.227C16.5274 125.292 16.486 125.193 16.513 125.258C16.5147 125.262 16.5177 125.269 16.5193 125.273C16.5294 125.297 16.5156 125.264 16.5256 125.288C16.5356 125.312 16.5281 125.294 16.538 125.318C16.5479 125.341 16.5406 125.324 16.5503 125.347C16.6024 125.472 16.5943 125.453 16.6431 125.57C16.649 125.584 16.6591 125.608 16.6648 125.622C16.6733 125.643 16.6669 125.627 16.6754 125.647C16.7003 125.707 16.6609 125.613 16.6858 125.673C16.6914 125.686 16.6855 125.672 16.691 125.685C16.6919 125.687 16.6927 125.689 16.6936 125.691C16.6944 125.693 16.6953 125.695 16.6961 125.697C16.7016 125.71 16.7009 125.709 16.7063 125.722C16.7169 125.747 16.7157 125.744 16.7261 125.769C16.799 125.944 16.6919 125.687 16.764 125.86C16.8114 125.974 16.7348 125.79 16.782 125.903C16.7985 125.943 16.7743 125.885 16.7907 125.924C16.7908 125.924 16.7994 125.945 16.7994 125.945C16.8001 125.947 16.8008 125.948 16.8015 125.95C16.8022 125.952 16.8029 125.954 16.8036 125.955C16.8115 125.974 16.8 125.947 16.8078 125.965C16.8302 126.019 16.7938 125.932 16.8161 125.985C16.8248 126.006 16.8238 126.004 16.8323 126.024C16.8365 126.034 16.836 126.033 16.8402 126.043C16.8402 126.043 16.8479 126.061 16.8479 126.061C16.9048 126.198 16.8061 125.961 16.8628 126.097C16.878 126.134 16.8622 126.096 16.8772 126.132C16.879 126.136 16.8823 126.144 16.8841 126.148C16.886 126.153 16.8891 126.16 16.8909 126.165C16.9267 126.251 16.8684 126.111 16.904 126.196C16.914 126.22 16.9068 126.203 16.9165 126.226C16.9231 126.242 16.934 126.268 16.9397 126.282C16.951 126.309 16.9501 126.307 16.9605 126.332C17.0334 126.507 16.925 126.247 16.9947 126.414C17.0604 126.572 16.9566 126.322 17.0191 126.472C17.0295 126.497 17.018 126.47 17.0276 126.493C17.0363 126.514 17.0259 126.489 17.0337 126.508C17.0363 126.514 17.0335 126.507 17.0359 126.513C17.04 126.523 17.0335 126.507 17.0374 126.516C17.0382 126.518 17.0372 126.516 17.0379 126.518C17.0384 126.519 17.0379 126.518 17.0383 126.518C17.0383 126.519 17.0384 126.519 17.0384 126.519C17.0385 126.519 17.0385 126.519 17.0385 126.519C17.0385 126.519 17.0386 126.519 17.0386 126.519C17.0386 126.519 17.0386 126.519 17.0386 126.519C17.0386 126.519 17.0386 126.519 17.0386 126.519C17.0386 126.519 17.0386 126.519 18.8848 125.75ZM19.4809 121.981C18.7355 120.192 18.1002 117.703 17.6126 114.453L13.6569 115.047C14.1694 118.463 14.8674 121.308 15.7886 123.519L19.4809 121.981ZM17.6147 114.467C17.139 111.137 17.0548 107.455 17.3784 103.409L13.3911 103.09C13.0481 107.379 13.1306 111.363 13.6549 115.033L17.6147 114.467ZM17.3716 103.479C17.8396 99.423 19.171 95.2393 21.4103 90.9206L17.8593 89.0794C15.4319 93.7607 13.9299 98.4103 13.3979 103.021L17.3716 103.479ZM21.3995 90.9412C24.0325 86.0043 26.739 81.5777 29.5168 77.656L26.2527 75.344C23.3639 79.4223 20.5704 83.9957 17.8701 89.0588L21.3995 90.9412ZM29.5078 77.6686C32.5163 73.4902 35.2763 69.5594 37.7872 65.8767L34.4823 63.6233C31.9933 67.2739 29.2532 71.1765 26.2617 75.3314L29.5078 77.6686ZM37.81 65.8425C40.3765 61.9072 42.4423 57.9527 43.9973 53.9788L40.2723 52.5212C38.8273 56.214 36.893 59.9261 34.4595 63.6575L37.81 65.8425ZM43.9809 54.0192C45.7568 49.7572 46.6348 45.1602 46.6348 40.25H42.6348C42.6348 44.6731 41.8461 48.7428 40.2886 52.4808L43.9809 54.0192ZM46.6348 40.25C46.6348 36.0791 46.0301 32.5106 44.6971 29.6542L41.0724 31.3458C42.0728 33.4894 42.6348 36.4208 42.6348 40.25H46.6348ZM44.7417 29.7572C43.6102 26.9285 41.8705 24.6701 39.4942 23.0859L37.2754 26.4141C38.899 27.4965 40.1593 29.0715 41.0278 31.2428L44.7417 29.7572ZM39.6512 23.2021C37.5456 21.4793 35.0727 20.348 32.277 19.7888L31.4925 23.7112C33.6968 24.152 35.5573 25.0207 37.1183 26.2979L39.6512 23.2021ZM32.277 19.7888C29.6504 19.2635 27.0191 19 24.3848 19V23C26.7505 23 29.1191 23.2365 31.4925 23.7112L32.277 19.7888ZM24.3848 19C18.7034 19 13.8816 19.8577 10.0249 21.6943L11.7446 25.3057C14.8879 23.8089 19.0662 23 24.3848 23V19ZM10.0969 21.6617C6.57978 23.1691 3.93703 24.4781 2.27537 25.5859L4.49416 28.9141C5.83251 28.0219 8.18975 26.8309 11.6726 25.3383L10.0969 21.6617ZM5.28213 26.6175C4.46566 24.1681 3.72983 21.634 3.07505 19.0149L-0.805519 19.9851C-0.126967 22.6993 0.637203 25.3319 1.4874 27.8824L5.28213 26.6175ZM3.10051 19.1314C2.62428 16.5915 2.38477 13.9651 2.38477 11.25H-1.61523C-1.61523 14.2015 -1.35475 17.0751 -0.830978 19.8686L3.10051 19.1314ZM2.38477 11.25C2.38477 10.2674 3.05243 8.9494 5.99094 7.55747L4.27859 3.94252C0.883771 5.5506 -1.61523 7.89924 -1.61523 11.25H2.38477ZM5.99094 7.55747C8.96871 6.14695 12.8045 4.93827 17.54 3.95851L16.7296 0.0414658C11.7984 1.06172 7.63415 2.35305 4.27859 3.94252L5.99094 7.55747ZM17.54 3.95851C22.2428 2.98551 26.9404 2.49999 31.6348 2.49999V-1.50001C26.6624 -1.50001 21.6934 -0.985527 16.7296 0.0414648L17.54 3.95851ZM31.6348 2.49999C36.6067 2.49999 41.1325 3.2214 45.2305 4.63996L46.539 0.86002C41.9704 -0.721421 36.9962 -1.50001 31.6348 -1.50001V2.49999ZM45.2966 4.66155C49.3401 5.90572 52.717 7.91062 55.4706 10.6642L58.299 7.83578C55.0526 4.58937 51.0961 2.26093 46.4729 0.838433L45.2966 4.66155ZM55.5512 10.7405C58.4444 13.3291 60.597 16.6162 61.9948 20.6542L65.7747 19.3458C64.1725 14.7171 61.6585 10.8375 58.2184 7.75951L55.5512 10.7405ZM62.0181 20.718C63.5773 24.7718 64.3848 29.6017 64.3848 35.25H68.3848C68.3848 29.2317 67.5256 23.8949 65.7515 19.282L62.0181 20.718ZM64.3848 35.25C64.3848 42.7495 63.4058 49.1812 61.4988 54.5844L65.2708 55.9156C67.3638 49.9854 68.3848 43.0838 68.3848 35.25H64.3848ZM61.4988 54.5844C59.548 60.1116 57.119 65.0431 54.2207 69.3906L57.5489 71.6094C60.6505 66.9569 63.2215 61.7217 65.2708 55.9156L61.4988 54.5844ZM54.2207 69.3906C51.2491 73.848 48.1976 78.0537 45.0667 82.0086L48.2029 84.4914C51.4053 80.4463 54.5205 76.152 57.5489 71.6094L54.2207 69.3906ZM45.0348 82.05C41.9922 86.1068 39.2822 90.1708 36.9072 94.2422L40.3623 96.2577C42.6539 92.3292 45.2773 88.3932 48.2348 84.45L45.0348 82.05ZM36.8898 94.2728C34.4106 98.6998 33.2017 103.147 33.3865 107.583L37.383 107.417C37.2345 103.853 38.1922 100.134 40.3798 96.2272L36.8898 94.2728ZM33.3917 107.666C33.7326 111.757 34.3329 115.386 35.2077 118.535L39.0618 117.465C38.27 114.614 37.7036 111.243 37.3779 107.334L33.3917 107.666ZM35.216 118.564C35.6046 119.885 35.7598 120.869 35.7598 121.562C35.7598 122.267 35.6021 122.465 35.5983 122.47L38.6712 125.03C39.5007 124.035 39.7598 122.774 39.7598 121.562C39.7598 120.339 39.4983 118.948 39.0535 117.436L35.216 118.564ZM35.573 122.501C35.5187 122.569 35.298 122.78 34.6975 123.047C34.1165 123.306 33.3023 123.562 32.2157 123.794L33.0538 127.706C34.3006 127.438 35.403 127.111 36.322 126.703C37.2215 126.303 38.0842 125.765 38.6965 124.999L35.573 122.501ZM32.3307 123.773C30.2774 124.089 28.0468 124.25 25.6348 124.25V128.25C28.2227 128.25 30.6588 128.078 32.9389 127.727L32.3307 123.773ZM25.6348 124.25C23.2206 124.25 21.0833 124.089 19.2136 123.777L18.556 127.723C20.6862 128.078 23.0489 128.25 25.6348 128.25V124.25ZM28.1348 177.5C23.2241 177.5 20.2626 176.305 18.6461 174.44L15.6234 177.06C18.3403 180.195 22.7121 181.5 28.1348 181.5V177.5ZM18.6965 174.501C17.0756 172.475 16.1348 169.477 16.1348 165.25H12.1348C12.1348 170.023 13.1939 174.025 15.573 176.999L18.6965 174.501ZM16.1348 165.25C16.1348 161.858 17.1541 158.98 19.1786 156.521L16.0909 153.979C13.4488 157.187 12.1348 160.975 12.1348 165.25H16.1348ZM19.1712 156.53C21.231 154.059 24.1273 152.75 28.1348 152.75V148.75C23.1422 148.75 19.0386 150.441 16.0983 153.97L19.1712 156.53ZM28.1348 152.75C33.026 152.75 35.8337 154.015 37.2848 155.95L40.4848 153.55C37.9359 150.151 33.5769 148.75 28.1348 148.75V152.75ZM37.3325 156.011C39.1407 158.237 40.1348 161.253 40.1348 165.25H44.1348C44.1348 160.58 42.9622 156.597 40.437 153.489L37.3325 156.011ZM40.1348 165.25C40.1348 168.604 39.0576 171.465 36.8851 173.927L39.8844 176.573C42.712 173.369 44.1348 169.563 44.1348 165.25H40.1348ZM36.8409 173.979C34.9727 176.247 32.1854 177.5 28.1348 177.5V181.5C33.0841 181.5 37.1302 179.919 39.9286 176.521L36.8409 173.979Z" fill="black" mask="url(#path-1-outside-1_73_307)"/>
</svg>
