<svg width="400" height="400" viewBox="0 0 400 400" fill="none" xmlns="http://www.w3.org/2000/svg">
<g clip-path="url(#clip0_773_32)">
<path d="M329.455 113.751V112.683C329.455 42.9268 274.181 1.14441e-05 195.311 1.14441e-05C149.816 1.14441e-05 113.649 12.8264 84.678 32.6848C67.8364 44.2268 66.3202 69.5312 78.6588 85.8153L87.6563 97.6902C99.9949 113.967 122.089 115.515 139.975 105.635C156.274 96.6305 172.806 91.7563 188.333 91.7563C214.087 91.7563 228.576 103.02 228.576 121.269V121.803C228.576 144.88 206.574 177.857 144.331 183.22L142.188 185.633C141.004 186.965 142.498 204.425 145.515 224.623L147.991 241.093C151.008 261.292 167.996 277.661 185.921 277.661C203.846 277.661 219.828 269.972 221.593 260.495C223.379 251.011 224.818 243.321 224.818 243.321C284.369 228.825 329.455 181.363 329.455 113.751Z" fill="#082233"/>
<path d="M168.429 308.777C148.006 308.777 131.459 325.333 131.459 345.756V363.023C131.459 383.446 148.015 400.001 168.429 400.001H200.178C220.601 400.001 237.157 383.446 237.157 363.023V345.756C237.157 325.333 220.594 308.777 200.178 308.777H168.429Z" fill="#082233"/>
</g>
<defs>
<clipPath id="clip0_773_32">
<rect width="400" height="400" fill="white"/>
</clipPath>
</defs>
</svg>
