<svg width="1461" height="111" viewBox="0 0 1461 111" fill="none" xmlns="http://www.w3.org/2000/svg">
<path fill-rule="evenodd" clip-rule="evenodd" d="M0 0L60.4945 4.17052C122.13 8.34104 243.12 16.6821 365.25 30.7977C487.38 45.2341 608.37 65.7659 730.5 69.9364C852.631 74.1069 973.62 61.5954 1095.75 57.7457C1217.88 53.5751 1318.32 68.0116 1379.96 69.9364L1417.06 84.5L1461 111H1400.51C1338.87 111 1217.88 111 1095.75 111C973.62 111 852.631 111 730.5 111C608.37 111 487.38 111 365.25 111C243.12 111 122.13 111 60.4945 111H0V0Z" fill="#8DEAFF"/>
<path fill-rule="evenodd" clip-rule="evenodd" d="M0 44.4L48.7 53.28C97.4 62.16 194.8 79.92 292.2 75.48C389.6 71.04 487 44.4 584.4 26.64C681.8 8.88 779.2 0 876.6 0C974 0 1071.4 8.88 1168.8 24.42C1266.2 39.96 1363.6 62.16 1412.3 73.26L1461 84.36V111H1412.3C1363.6 111 1266.2 111 1168.8 111C1071.4 111 974 111 876.6 111C779.2 111 681.8 111 584.4 111C487 111 389.6 111 292.2 111C194.8 111 97.4 111 48.7 111H0V44.4Z" fill="#007A9F"/>
</svg>
