<svg width="1512" height="111" viewBox="0 0 1512 111" fill="none" xmlns="http://www.w3.org/2000/svg">
<path fill-rule="evenodd" clip-rule="evenodd" d="M0 1L62.6062 5.17052C126.394 9.34104 251.606 17.6821 378 31.7977C504.394 46.2341 629.606 66.7659 756 70.9364C882.394 75.1069 1007.61 62.5954 1134 58.7457C1260.39 54.5751 1374.38 69.0116 1438.17 70.9364L1472.43 84.5L1512 112H1449.39C1385.61 112 1260.39 112 1134 112C1007.61 112 882.394 112 756 112C629.606 112 504.394 112 378 112C251.606 112 126.394 112 62.6062 112H0V1Z" fill="#007A9F"/>
<path fill-rule="evenodd" clip-rule="evenodd" d="M0 44.4L50.4 53.28C100.8 62.16 201.6 79.92 302.4 75.48C403.2 71.04 504 44.4 604.8 26.64C705.6 8.88 806.4 0 907.2 0C1008 0 1108.8 8.88 1209.6 24.42C1310.4 39.96 1411.2 62.16 1461.6 73.26L1512 84.36V111H1461.6C1411.2 111 1310.4 111 1209.6 111C1108.8 111 1008 111 907.2 111C806.4 111 705.6 111 604.8 111C504 111 403.2 111 302.4 111C201.6 111 100.8 111 50.4 111H0V44.4Z" fill="#8DEAFF"/>
</svg>
