<svg width="1280" height="111" viewBox="0 0 1280 111" fill="none" xmlns="http://www.w3.org/2000/svg">
<path fill-rule="evenodd" clip-rule="evenodd" d="M0 1L53 5.17052C107 9.34104 213 17.6821 320 31.7977C427 46.2341 533 66.7659 640 70.9364C747 75.1069 853 62.5954 960 58.7457C1067 54.5751 1163.5 69.0116 1217.5 70.9364L1246.5 84.5L1280 112H1227C1173 112 1067 112 960 112C853 112 747 112 640 112C533 112 427 112 320 112C213 112 107 112 53 112H0V1Z" fill="#007A9F"/>
<path fill-rule="evenodd" clip-rule="evenodd" d="M0 44.4L42.6667 53.28C85.3333 62.16 170.667 79.92 256 75.48C341.333 71.04 426.667 44.4 512 26.64C597.333 8.88 682.667 0 768 0C853.333 0 938.667 8.88 1024 24.42C1109.33 39.96 1194.67 62.16 1237.33 73.26L1280 84.36V111H1237.33C1194.67 111 1109.33 111 1024 111C938.667 111 853.333 111 768 111C682.667 111 597.333 111 512 111C426.667 111 341.333 111 256 111C170.667 111 85.3333 111 42.6667 111H0V44.4Z" fill="#8DEAFF"/>
</svg>
