<svg width="400" height="400" viewBox="0 0 400 400" fill="none" xmlns="http://www.w3.org/2000/svg">
<g clip-path="url(#clip0_773_41)">
<path d="M199.831 -7.62939e-06C116.512 -7.62939e-06 49.1113 67.4005 49.1113 150.72C49.1113 194.073 70.7879 233.362 92.1257 269.602C118.205 314.652 149.365 356.647 185.606 393.903C193.396 402.029 206.27 402.029 214.395 393.903C246.232 362.405 274.344 326.842 298.053 288.908C323.455 247.922 350.889 200.505 350.889 150.72C350.551 67.7392 283.15 -7.62939e-06 199.831 -7.62939e-06ZM199.831 238.103C149.365 238.103 108.383 197.121 108.383 146.655C108.383 96.1897 149.365 55.2074 199.831 55.2074C250.297 55.2074 291.279 95.851 291.279 146.655C291.279 197.46 250.297 238.103 199.831 238.103Z" fill="#082233"/>
</g>
<defs>
<clipPath id="clip0_773_41">
<rect width="400" height="400" fill="white"/>
</clipPath>
</defs>
</svg>
