<svg width="996" height="1506" viewBox="0 0 996 1506" fill="none" xmlns="http://www.w3.org/2000/svg">
<rect width="996" height="1506" fill="#31CDF1"/>
<mask id="path-2-outside-1_648_11" maskUnits="userSpaceOnUse" x="431" y="530" width="137" height="362" fill="black">
<rect fill="white" x="431" y="530" width="137" height="362"/>
<path d="M470.77 782.5C470.77 782.5 469.936 780.5 468.27 776.5C466.603 772.5 465.27 767.167 464.27 760.5C463.27 753.5 463.103 745.833 463.77 737.5C464.77 728.833 467.603 720 472.27 711C477.603 701 483.103 692 488.77 684C494.77 675.667 500.27 667.833 505.27 660.5C510.27 652.833 514.27 645.167 517.27 637.5C520.603 629.5 522.27 620.833 522.27 611.5C522.27 603.5 521.103 597 518.77 592C516.77 587 513.77 583.167 509.77 580.5C506.103 577.5 501.77 575.5 496.77 574.5C491.77 573.5 486.77 573 481.77 573C470.77 573 461.77 574.667 454.77 578C447.77 581 442.77 583.5 439.77 585.5C438.103 580.5 436.603 575.333 435.27 570C434.27 564.667 433.77 559.167 433.77 553.5C433.77 549.167 436.936 545.5 443.27 542.5C449.603 539.5 457.603 537 467.27 535C476.936 533 486.603 532 496.27 532C506.603 532 516.103 533.5 524.77 536.5C533.436 539.167 540.77 543.5 546.77 549.5C553.103 555.167 557.77 562.333 560.77 571C564.103 579.667 565.77 589.833 565.77 601.5C565.77 616.833 563.77 630.167 559.77 641.5C555.77 652.833 550.77 663 544.77 672C538.77 681 532.603 689.5 526.27 697.5C520.27 705.5 514.936 713.5 510.27 721.5C505.603 729.833 503.436 738 503.77 746C504.436 754 505.603 761 507.27 767C508.936 772.667 508.936 776.5 507.27 778.5C505.936 780.167 502.936 781.5 498.27 782.5C493.936 783.167 489.27 783.5 484.27 783.5C479.27 783.5 474.77 783.167 470.77 782.5ZM489.27 890C478.936 890 471.603 887.5 467.27 882.5C463.27 877.5 461.27 870.5 461.27 861.5C461.27 853.833 463.603 847.167 468.27 841.5C473.27 835.5 480.27 832.5 489.27 832.5C499.603 832.5 506.77 835.167 510.77 840.5C515.103 845.833 517.27 852.833 517.27 861.5C517.27 869.167 514.77 875.833 509.77 881.5C505.103 887.167 498.27 890 489.27 890Z"/>
</mask>
<path d="M470.77 782.5C470.77 782.5 469.936 780.5 468.27 776.5C466.603 772.5 465.27 767.167 464.27 760.5C463.27 753.5 463.103 745.833 463.77 737.5C464.77 728.833 467.603 720 472.27 711C477.603 701 483.103 692 488.77 684C494.77 675.667 500.27 667.833 505.27 660.5C510.27 652.833 514.27 645.167 517.27 637.5C520.603 629.5 522.27 620.833 522.27 611.5C522.27 603.5 521.103 597 518.77 592C516.77 587 513.77 583.167 509.77 580.5C506.103 577.5 501.77 575.5 496.77 574.5C491.77 573.5 486.77 573 481.77 573C470.77 573 461.77 574.667 454.77 578C447.77 581 442.77 583.5 439.77 585.5C438.103 580.5 436.603 575.333 435.27 570C434.27 564.667 433.77 559.167 433.77 553.5C433.77 549.167 436.936 545.5 443.27 542.5C449.603 539.5 457.603 537 467.27 535C476.936 533 486.603 532 496.27 532C506.603 532 516.103 533.5 524.77 536.5C533.436 539.167 540.77 543.5 546.77 549.5C553.103 555.167 557.77 562.333 560.77 571C564.103 579.667 565.77 589.833 565.77 601.5C565.77 616.833 563.77 630.167 559.77 641.5C555.77 652.833 550.77 663 544.77 672C538.77 681 532.603 689.5 526.27 697.5C520.27 705.5 514.936 713.5 510.27 721.5C505.603 729.833 503.436 738 503.77 746C504.436 754 505.603 761 507.27 767C508.936 772.667 508.936 776.5 507.27 778.5C505.936 780.167 502.936 781.5 498.27 782.5C493.936 783.167 489.27 783.5 484.27 783.5C479.27 783.5 474.77 783.167 470.77 782.5ZM489.27 890C478.936 890 471.603 887.5 467.27 882.5C463.27 877.5 461.27 870.5 461.27 861.5C461.27 853.833 463.603 847.167 468.27 841.5C473.27 835.5 480.27 832.5 489.27 832.5C499.603 832.5 506.77 835.167 510.77 840.5C515.103 845.833 517.27 852.833 517.27 861.5C517.27 869.167 514.77 875.833 509.77 881.5C505.103 887.167 498.27 890 489.27 890Z" fill="#FFCD00"/>
<path d="M470.77 782.5L468.923 783.269L469.349 784.291L470.441 784.473L470.77 782.5ZM468.27 776.5L470.116 775.731L470.116 775.731L468.27 776.5ZM464.27 760.5L462.29 760.783L462.292 760.797L464.27 760.5ZM463.77 737.5L461.783 737.271L461.779 737.306L461.776 737.34L463.77 737.5ZM472.27 711L470.505 710.059L470.499 710.069L470.494 710.079L472.27 711ZM488.77 684L487.146 682.831L487.142 682.838L487.137 682.844L488.77 684ZM505.27 660.5L506.922 661.627L506.934 661.61L506.945 661.593L505.27 660.5ZM517.27 637.5L515.423 636.731L515.415 636.751L515.407 636.771L517.27 637.5ZM518.77 592L516.913 592.743L516.933 592.795L516.957 592.846L518.77 592ZM509.77 580.5L508.503 582.048L508.579 582.11L508.66 582.164L509.77 580.5ZM496.77 574.5L496.377 576.461L496.377 576.461L496.77 574.5ZM454.77 578L455.557 579.838L455.594 579.823L455.629 579.806L454.77 578ZM439.77 585.5L437.872 586.132L438.7 588.617L440.879 587.164L439.77 585.5ZM435.27 570L433.304 570.369L433.315 570.427L433.329 570.485L435.27 570ZM467.27 535L466.864 533.041L466.864 533.041L467.27 535ZM524.77 536.5L524.115 538.39L524.148 538.401L524.181 538.412L524.77 536.5ZM546.77 549.5L545.355 550.914L545.395 550.953L545.436 550.99L546.77 549.5ZM560.77 571L558.88 571.654L558.891 571.686L558.903 571.718L560.77 571ZM559.77 641.5L561.656 642.166L561.656 642.166L559.77 641.5ZM544.77 672L546.434 673.109L546.434 673.109L544.77 672ZM526.27 697.5L524.701 696.259L524.685 696.279L524.67 696.3L526.27 697.5ZM510.27 721.5L508.542 720.492L508.533 720.507L508.525 720.523L510.27 721.5ZM503.77 746L501.771 746.083L501.773 746.125L501.776 746.166L503.77 746ZM507.27 767L505.342 767.535L505.347 767.55L505.351 767.564L507.27 767ZM507.27 778.5L505.733 777.22L505.72 777.235L505.708 777.251L507.27 778.5ZM498.27 782.5L498.574 784.477L498.631 784.468L498.689 784.456L498.27 782.5ZM467.27 882.5L465.708 883.749L465.732 883.78L465.758 883.81L467.27 882.5ZM468.27 841.5L466.733 840.22L466.726 840.229L468.27 841.5ZM510.77 840.5L509.17 841.7L509.193 841.731L509.217 841.761L510.77 840.5ZM509.77 881.5L508.27 880.177L508.247 880.202L508.226 880.229L509.77 881.5ZM470.77 782.5C472.616 781.731 472.616 781.731 472.616 781.731C472.616 781.731 472.616 781.731 472.616 781.731C472.616 781.731 472.616 781.731 472.616 781.731C472.616 781.731 472.616 781.73 472.616 781.73C472.616 781.73 472.615 781.73 472.615 781.73C472.615 781.73 472.615 781.73 472.615 781.73C472.615 781.729 472.616 781.731 472.615 781.729C472.615 781.729 472.615 781.729 472.615 781.729C472.615 781.729 472.615 781.729 472.615 781.728C472.615 781.728 472.615 781.728 472.614 781.727C472.613 781.725 472.615 781.728 472.614 781.726C472.614 781.726 472.614 781.726 472.614 781.726C472.613 781.725 472.613 781.725 472.613 781.725C472.612 781.722 472.609 781.714 472.606 781.707C472.601 781.696 472.588 781.664 472.577 781.637C472.504 781.462 472.607 781.71 472.528 781.52C472.475 781.392 472.551 781.575 472.496 781.444C472.487 781.422 472.47 781.381 472.459 781.356C472.458 781.353 472.456 781.347 472.455 781.344C472.454 781.342 472.453 781.34 472.452 781.338C472.451 781.336 472.45 781.334 472.45 781.332C472.447 781.325 472.447 781.326 472.444 781.32C472.444 781.318 472.443 781.316 472.442 781.314C472.441 781.312 472.44 781.31 472.439 781.307C472.423 781.268 472.435 781.297 472.418 781.256C472.394 781.198 472.398 781.207 472.372 781.145C472.355 781.106 472.338 781.065 472.32 781.022C472.319 781.019 472.318 781.016 472.317 781.014C472.316 781.011 472.315 781.008 472.314 781.006C472.312 781.003 472.311 781 472.31 780.997C472.309 780.995 472.308 780.992 472.307 780.989C472.306 780.986 472.304 780.984 472.303 780.981C472.302 780.978 472.301 780.975 472.3 780.973C472.299 780.97 472.297 780.967 472.296 780.964C472.295 780.961 472.294 780.959 472.293 780.956C472.27 780.902 472.287 780.942 472.264 780.887C472.207 780.75 472.074 780.431 471.991 780.231C471.989 780.227 471.987 780.223 471.986 780.219C471.984 780.215 471.983 780.211 471.981 780.207C471.979 780.203 471.978 780.199 471.976 780.195C471.974 780.191 471.973 780.187 471.971 780.184C471.955 780.145 471.967 780.174 471.951 780.136C471.918 780.057 471.943 780.117 471.91 780.037C471.894 779.998 471.906 780.027 471.889 779.987C471.884 779.974 471.884 779.975 471.879 779.962C471.877 779.958 471.875 779.953 471.873 779.949C471.872 779.945 471.87 779.941 471.868 779.936C471.866 779.932 471.864 779.928 471.863 779.923C471.861 779.919 471.859 779.915 471.857 779.911C471.855 779.906 471.854 779.902 471.852 779.898C471.85 779.893 471.848 779.889 471.846 779.885C471.845 779.88 471.843 779.876 471.841 779.872C471.839 779.867 471.837 779.863 471.836 779.859C471.809 779.796 471.851 779.895 471.825 779.832C471.752 779.658 471.809 779.794 471.734 779.616C471.733 779.612 471.713 779.563 471.711 779.56C471.709 779.555 471.707 779.55 471.705 779.545C471.703 779.541 471.701 779.536 471.699 779.531C471.696 779.524 471.691 779.51 471.687 779.503C471.662 779.441 471.665 779.45 471.639 779.387C471.637 779.382 471.635 779.377 471.633 779.372C471.631 779.367 471.629 779.363 471.627 779.358C471.62 779.342 471.621 779.344 471.615 779.328C471.595 779.28 471.61 779.316 471.59 779.268C471.588 779.263 471.586 779.258 471.583 779.253C471.581 779.248 471.579 779.243 471.577 779.238C471.575 779.233 471.573 779.228 471.571 779.223C471.569 779.218 471.567 779.213 471.565 779.208C471.551 779.176 471.553 779.179 471.539 779.147C471.511 779.081 471.515 779.089 471.487 779.022C471.466 778.972 471.455 778.946 471.434 778.895C471.432 778.889 471.43 778.884 471.427 778.879C471.425 778.873 471.423 778.868 471.421 778.863C471.418 778.857 471.416 778.852 471.414 778.846C471.412 778.841 471.409 778.835 471.407 778.83C471.349 778.691 471.438 778.904 471.38 778.764C471.365 778.729 471.339 778.667 471.324 778.631C471.302 778.577 471.319 778.618 471.296 778.563C471.281 778.527 471.283 778.532 471.267 778.495C471.206 778.348 471.271 778.504 471.209 778.356C471.09 778.068 470.847 777.487 470.702 777.137C470.699 777.13 470.696 777.123 470.693 777.116C470.69 777.11 470.687 777.103 470.684 777.096C470.682 777.089 470.679 777.082 470.676 777.075C470.673 777.068 470.67 777.062 470.667 777.055C470.664 777.048 470.662 777.041 470.659 777.034C470.656 777.027 470.653 777.02 470.65 777.013C470.645 777.002 470.637 776.983 470.633 776.971C470.63 776.965 470.627 776.958 470.624 776.951C470.621 776.944 470.618 776.937 470.615 776.93C470.612 776.923 470.609 776.916 470.606 776.909C470.604 776.902 470.601 776.895 470.598 776.888C470.593 776.876 470.585 776.857 470.58 776.845C470.577 776.838 470.574 776.831 470.571 776.824C470.568 776.817 470.565 776.81 470.562 776.803C470.487 776.622 470.496 776.642 470.418 776.457C470.342 776.273 470.199 775.931 470.116 775.731L466.423 777.269C467.257 779.269 467.882 780.769 468.298 781.769C468.3 781.773 468.302 781.777 468.303 781.781C468.305 781.785 468.306 781.789 468.308 781.793C468.31 781.796 468.311 781.8 468.313 781.804C468.315 781.808 468.316 781.812 468.318 781.816C468.333 781.852 468.312 781.802 468.327 781.839C468.331 781.846 468.334 781.854 468.337 781.862C468.357 781.91 468.354 781.903 468.374 781.951C468.422 782.065 468.363 781.924 468.41 782.037C468.438 782.105 468.399 782.012 468.428 782.079C468.439 782.107 468.425 782.073 468.436 782.1C468.438 782.104 468.439 782.107 468.441 782.111C468.442 782.114 468.443 782.117 468.445 782.121C468.459 782.154 468.44 782.108 468.453 782.141C468.467 782.173 468.448 782.129 468.462 782.161C468.484 782.215 468.456 782.148 468.478 782.201C468.53 782.324 468.46 782.157 468.511 782.279C468.528 782.32 468.51 782.276 468.526 782.317C468.537 782.341 468.524 782.311 468.534 782.335C468.536 782.338 468.537 782.341 468.538 782.345C468.539 782.348 468.541 782.351 468.542 782.354C468.554 782.383 468.537 782.343 468.549 782.372C468.561 782.401 468.545 782.361 468.557 782.39C468.558 782.393 468.56 782.396 468.561 782.399C468.562 782.402 468.563 782.405 468.564 782.408C468.566 782.411 468.567 782.414 468.568 782.417C468.569 782.42 468.571 782.423 468.572 782.425C468.573 782.428 468.574 782.431 468.575 782.434C468.577 782.437 468.578 782.44 468.579 782.443C468.58 782.446 468.582 782.449 468.583 782.452C468.584 782.455 468.585 782.457 468.586 782.46C468.588 782.463 468.589 782.466 468.59 782.469C468.591 782.472 468.592 782.475 468.593 782.477C468.595 782.48 468.596 782.483 468.597 782.486C468.598 782.489 468.599 782.492 468.601 782.494C468.612 782.521 468.617 782.534 468.628 782.56C468.637 782.582 468.626 782.555 468.635 782.576C468.636 782.579 468.637 782.582 468.638 782.584C468.639 782.587 468.64 782.589 468.641 782.592C468.642 782.595 468.643 782.597 468.645 782.6C468.646 782.603 468.647 782.605 468.648 782.608C468.649 782.61 468.65 782.613 468.651 782.616C468.652 782.618 468.653 782.621 468.654 782.623C468.664 782.647 468.657 782.63 468.667 782.654C468.668 782.656 468.669 782.659 468.67 782.661C468.671 782.664 468.672 782.666 468.673 782.669C468.673 782.669 468.679 782.683 468.679 782.683C468.689 782.706 468.764 782.887 468.767 782.894C468.805 782.986 468.872 783.146 468.884 783.175C468.895 783.2 468.893 783.195 468.901 783.216C468.918 783.257 468.892 783.194 468.908 783.233C468.91 783.237 468.909 783.236 468.911 783.24C468.913 783.245 468.91 783.238 468.912 783.243C468.913 783.243 468.913 783.245 468.914 783.246C468.916 783.252 468.916 783.251 468.918 783.256C468.918 783.257 468.919 783.258 468.919 783.258C468.919 783.258 468.919 783.259 468.919 783.259C468.919 783.259 468.919 783.26 468.92 783.26C468.92 783.261 468.921 783.262 468.921 783.263C468.922 783.265 468.921 783.265 468.922 783.266C468.923 783.267 468.922 783.267 468.923 783.268C468.923 783.268 468.923 783.268 468.923 783.268C468.923 783.268 468.923 783.268 468.923 783.268C468.923 783.269 468.923 783.268 468.923 783.269C468.923 783.269 468.923 783.269 468.923 783.269C468.923 783.269 468.923 783.269 468.923 783.269C468.923 783.269 468.923 783.269 470.77 782.5ZM470.116 775.731C468.537 771.942 467.235 766.787 466.247 760.203L462.292 760.797C463.304 767.547 464.669 773.058 466.423 777.269L470.116 775.731ZM466.249 760.217C465.274 753.387 465.106 745.871 465.763 737.659L461.776 737.34C461.1 745.795 461.265 753.613 462.29 760.783L466.249 760.217ZM465.756 737.729C466.724 729.34 469.472 720.739 474.045 711.921L470.494 710.079C465.733 719.261 462.815 728.327 461.783 737.271L465.756 737.729ZM474.034 711.941C479.334 702.004 484.79 693.078 490.402 685.156L487.137 682.844C481.415 690.922 475.872 699.996 470.505 710.059L474.034 711.941ZM490.393 685.169C496.401 676.824 501.911 668.976 506.922 661.627L503.617 659.373C498.628 666.691 493.138 674.51 487.146 682.831L490.393 685.169ZM506.945 661.593C512.011 653.824 516.077 646.036 519.132 638.229L515.407 636.771C512.462 644.297 508.528 651.843 503.594 659.407L506.945 661.593ZM519.116 638.269C522.558 630.007 524.27 621.077 524.27 611.5H520.27C520.27 620.59 518.648 628.993 515.423 636.731L519.116 638.269ZM524.27 611.5C524.27 603.329 523.082 596.511 520.582 591.154L516.957 592.846C519.124 597.489 520.27 603.671 520.27 611.5H524.27ZM520.626 591.257C518.495 585.928 515.255 581.753 510.879 578.836L508.66 582.164C512.284 584.58 515.044 588.071 516.913 592.743L520.626 591.257ZM511.036 578.952C507.097 575.729 502.457 573.598 497.162 572.539L496.377 576.461C501.082 577.402 505.109 579.271 508.503 582.048L511.036 578.952ZM497.162 572.539C492.035 571.514 486.904 571 481.77 571V575C486.635 575 491.504 575.486 496.377 576.461L497.162 572.539ZM481.77 571C470.588 571 461.266 572.691 453.91 576.194L455.629 579.806C462.273 576.642 470.951 575 481.77 575V571ZM453.982 576.162C446.965 579.169 441.822 581.728 438.66 583.836L440.879 587.164C443.717 585.272 448.575 582.831 455.557 579.838L453.982 576.162ZM441.667 584.868C440.017 579.918 438.531 574.801 437.21 569.515L433.329 570.485C434.674 575.866 436.189 581.082 437.872 586.132L441.667 584.868ZM437.235 569.631C436.259 564.425 435.77 559.048 435.77 553.5H431.77C431.77 559.285 432.28 564.908 433.304 570.369L437.235 569.631ZM435.77 553.5C435.77 550.351 438.021 547.199 444.126 544.307L442.413 540.693C435.852 543.801 431.77 547.983 431.77 553.5H435.77ZM444.126 544.307C450.27 541.397 458.106 538.938 467.675 536.958L466.864 533.041C457.1 535.062 448.936 537.603 442.413 540.693L444.126 544.307ZM467.675 536.958C477.211 534.985 486.742 534 496.27 534V530C486.464 530 476.661 531.014 466.864 533.041L467.675 536.958ZM496.27 534C506.408 534 515.684 535.471 524.115 538.39L525.424 534.61C516.522 531.529 506.798 530 496.27 530V534ZM524.181 538.412C532.558 540.989 539.602 545.161 545.355 550.914L548.184 548.086C541.937 541.839 534.314 537.344 525.358 534.588L524.181 538.412ZM545.436 550.99C551.496 556.412 555.982 563.283 558.88 571.654L562.66 570.346C559.557 561.384 554.71 553.921 548.103 548.01L545.436 550.99ZM558.903 571.718C562.129 580.105 563.77 590.018 563.77 601.5H567.77C567.77 589.648 566.077 579.228 562.636 570.282L558.903 571.718ZM563.77 601.5C563.77 616.666 561.791 629.765 557.884 640.834L561.656 642.166C565.749 630.569 567.77 617 567.77 601.5H563.77ZM557.884 640.834C553.933 652.028 549.004 662.043 543.105 670.891L546.434 673.109C552.535 663.957 557.606 653.638 561.656 642.166L557.884 640.834ZM543.105 670.891C537.134 679.848 530.999 688.304 524.701 696.259L527.838 698.741C534.207 690.696 540.405 682.152 546.434 673.109L543.105 670.891ZM524.67 696.3C518.627 704.357 513.25 712.421 508.542 720.492L511.997 722.508C516.622 714.579 521.912 706.643 527.87 698.7L524.67 696.3ZM508.525 720.523C503.712 729.116 501.42 737.647 501.771 746.083L505.768 745.917C505.453 738.353 507.494 730.55 512.015 722.477L508.525 720.523ZM501.776 746.166C502.451 754.257 503.634 761.386 505.342 767.535L509.197 766.465C507.571 760.614 506.422 753.743 505.763 745.834L501.776 746.166ZM505.351 767.564C506.156 770.302 506.52 772.473 506.52 774.125C506.52 775.788 506.154 776.715 505.733 777.22L508.806 779.78C510.052 778.285 510.52 776.295 510.52 774.125C510.52 771.944 510.05 769.365 509.188 766.436L505.351 767.564ZM505.708 777.251C505.32 777.735 504.558 778.322 503.207 778.922C501.876 779.514 500.104 780.062 497.85 780.544L498.689 784.456C501.102 783.938 503.163 783.319 504.832 782.578C506.481 781.845 507.886 780.931 508.831 779.749L505.708 777.251ZM497.965 780.523C493.746 781.172 489.182 781.5 484.27 781.5V785.5C489.357 785.5 494.127 785.161 498.574 784.477L497.965 780.523ZM484.27 781.5C479.355 781.5 474.968 781.172 471.098 780.527L470.441 784.473C474.571 785.161 479.184 785.5 484.27 785.5V781.5ZM489.27 888C479.192 888 472.564 885.555 468.781 881.19L465.758 883.81C470.642 889.445 478.68 892 489.27 892V888ZM468.831 881.251C465.21 876.725 463.27 870.227 463.27 861.5H459.27C459.27 870.773 461.329 878.275 465.708 883.749L468.831 881.251ZM463.27 861.5C463.27 854.275 465.455 848.063 469.813 842.771L466.726 840.229C461.75 846.27 459.27 853.392 459.27 861.5H463.27ZM469.806 842.78C474.366 837.309 480.762 834.5 489.27 834.5V830.5C479.777 830.5 472.173 833.691 466.733 840.22L469.806 842.78ZM489.27 834.5C499.327 834.5 505.718 837.099 509.17 841.7L512.37 839.3C507.821 833.235 499.878 830.5 489.27 830.5V834.5ZM509.217 841.761C513.192 846.653 515.27 853.17 515.27 861.5H519.27C519.27 852.497 517.014 845.013 512.322 839.239L509.217 841.761ZM515.27 861.5C515.27 868.687 512.942 874.881 508.27 880.177L511.269 882.823C516.597 876.785 519.27 869.646 519.27 861.5H515.27ZM508.226 880.229C504.024 885.331 497.82 888 489.27 888V892C498.719 892 506.182 889.003 511.313 882.771L508.226 880.229Z" fill="black" mask="url(#path-2-outside-1_648_11)"/>
</svg>
